<?xml version="1.0" encoding="utf-8"?>
<!-- Generator: Adobe Illustrator 21.1.0, SVG Export Plug-In . SVG Version: 6.00 Build 0)  -->
<svg version="1.1" id="Camada_1" xmlns="http://www.w3.org/2000/svg" xmlns:xlink="http://www.w3.org/1999/xlink" x="0px" y="0px"
	 viewBox="0 0 2048 1152" style="enable-background:new 0 0 2048 1152;" xml:space="preserve">
<path d="M1632.5,740.8l-45.3,73.5l104.9-1.1l0.9,90.2c-24.6,21.8-59.4,37.2-98.1,37.6c-83.7,0.9-139.6-71.6-140.6-169.4l0-1.1
	c-0.9-91.3,55.3-169.3,130.8-170.1c52.4-0.6,83,18.5,115.5,50.4L1746,587c-42.7-41.5-86.2-64.6-157.9-63.9
	c-69,0.7-126.6,36.8-163.7,92l-33.1-87.8l-84.6,0.9L1134,1019l-3.9-387.9l126.9-1.3l34.9-99.2l-407.5,4.3l1,98.8l151.8-1.6l3.9,390
	l184-2l23.2-70.1l45.6-135.9l0,0l53.6-159.6l31.2,86.7c-0.8,9.7-1.6,20.4-1.5,30.1l0,1.1c1.4,139.7,87.1,246.2,214.9,244.9
	c72.7-0.8,130.3-35.8,170.3-75.9l-2-202L1632.5,740.8z"/>
</svg>
